<svg width="118" height="84" viewBox="0 0 118 84" fill="none" xmlns="http://www.w3.org/2000/svg">
<g filter="url(#filter0_dd_1_85)">
<path d="M58.3238 37.7781H47.6986L47.6986 18.7581C47.6986 18.5794 47.5539 18.4346 47.3755 18.4346C47.197 18.4346 47.0523 18.5794 47.0523 18.7581L47.0523 37.7781H31.3232C31.1447 37.7781 31 37.9229 31 38.1015C31 38.2802 31.1447 38.425 31.3232 38.425H47.0523L47.0523 55.2232H47.3755C47.0523 55.2232 47.0523 55.2234 47.0523 55.2235V55.2239L47.0523 55.2248L47.0523 55.2272L47.0524 55.2312L47.0524 55.2346C47.0525 55.2408 47.0526 55.2492 47.0529 55.2598C47.0535 55.281 47.0547 55.3109 47.0569 55.3481C47.0613 55.4225 47.07 55.527 47.0874 55.6519C47.1218 55.8998 47.1912 56.236 47.333 56.5768C47.4748 56.9173 47.6946 57.2757 48.0372 57.55C48.3848 57.8284 48.8406 58.005 49.4225 58.005C50.0931 58.005 50.6176 57.8363 51.0218 57.5666C51.424 57.2982 51.6881 56.9427 51.8608 56.5971C52.0329 56.2527 52.1173 55.9122 52.1592 55.6605C52.1803 55.5339 52.1909 55.4277 52.1963 55.3519C52.1991 55.314 52.2005 55.2834 52.2012 55.2616C52.2016 55.2507 52.2017 55.242 52.2019 55.2355C52.2019 55.2323 52.2019 55.2296 52.2019 55.2276L52.202 55.225L52.202 55.224V55.2236C52.202 55.2234 52.202 55.2232 51.8788 55.2232H52.202V42.8453H62.7381L69.6293 55.8275L69.6635 55.8617L69.892 55.633C69.6635 55.8617 69.6636 55.8618 69.6637 55.8619L69.664 55.8622L69.6646 55.8628L69.6662 55.8644C69.6674 55.8656 69.6689 55.867 69.6707 55.8688C69.6744 55.8723 69.6792 55.877 69.6853 55.8827C69.6974 55.894 69.7144 55.9095 69.7359 55.9283C69.7789 55.9657 69.8406 56.0165 69.9194 56.0738C70.0764 56.1881 70.3045 56.3308 70.5908 56.4454C71.1691 56.6769 71.9842 56.7914 72.9022 56.332C73.8444 55.8605 74.1919 55.0314 74.3046 54.3546C74.3609 54.0168 74.3606 53.7095 74.3468 53.4874C74.3398 53.3758 74.3293 53.2844 74.3204 53.2198C74.3159 53.1874 74.3117 53.1617 74.3086 53.1433C74.3077 53.1379 74.3068 53.1331 74.3061 53.1289C74.3056 53.1261 74.3051 53.1236 74.3047 53.1214C74.3042 53.1188 74.3038 53.1165 74.3035 53.1148L74.303 53.1127L74.3028 53.1115C74.3028 53.1114 74.3028 53.1112 73.9859 53.1746L74.3028 53.1112L74.2936 53.0654L66.3333 37.9287H86.6768C86.8553 37.9287 87 37.7839 87 37.6052C87 37.4266 86.8553 37.2818 86.6768 37.2818H65.8694C65.5938 37.2818 65.4169 37.575 65.5453 37.8191L73.6759 53.2797C73.6772 53.2882 73.6787 53.2979 73.6802 53.3087C73.6872 53.3593 73.6959 53.4344 73.7017 53.5277C73.7134 53.7153 73.7132 53.9714 73.6671 54.2482C73.5751 54.8005 73.3085 55.4055 72.6132 55.7534C71.8938 56.1134 71.2759 56.023 70.8308 55.8448C70.6053 55.7546 70.424 55.6412 70.2995 55.5506C70.2376 55.5056 70.1905 55.4667 70.16 55.4401L70.157 55.4375C70.1551 55.4359 70.1534 55.4343 70.1516 55.4328L63.2299 42.393C63.1663 42.2733 63.0419 42.1985 62.9064 42.1985H51.9219C51.7196 42.1985 51.5556 42.3626 51.5556 42.565V55.2224C51.5556 55.2228 51.5556 55.2237 51.5556 55.2251C51.5556 55.2279 51.5555 55.233 51.5552 55.2401C51.5547 55.2543 51.5537 55.2766 51.5517 55.3058C51.5475 55.3645 51.539 55.4503 51.5217 55.5542C51.4868 55.7635 51.4177 56.0376 51.2827 56.3078C51.1484 56.5767 50.9519 56.8358 50.6633 57.0284C50.3767 57.2196 49.98 57.3581 49.4225 57.3581C48.9808 57.3581 48.669 57.2275 48.4409 57.0449C48.2078 56.8583 48.0438 56.6021 47.9296 56.328C47.8156 56.0542 47.7571 55.7759 47.7275 55.5629C47.7129 55.4572 47.7056 55.3697 47.7021 55.3097C47.7003 55.2797 47.6994 55.2567 47.699 55.2419C47.6989 55.2363 47.6988 55.2319 47.6987 55.2287L47.6987 55.226C47.6986 55.2244 47.6986 55.2233 47.6986 55.2229L47.6986 38.425H59.3994C60.5096 38.425 60.7575 38.3531 60.9705 38.2199L61.1835 38.0868C61.3699 37.9403 61.6229 37.7007 62.0623 37.3012" stroke="white" stroke-width="2" stroke-linecap="round"/>
<rect x="56.8466" y="35.4617" width="24.3143" height="4.62845" rx="2.31423" transform="rotate(-50.2778 56.8466 35.4617)" fill="url(#paint0_linear_1_85)" stroke="white" stroke-width="2.5"/>
</g>
<defs>
<filter id="filter0_dd_1_85" x="0" y="0.454895" width="118" height="82.5501" filterUnits="userSpaceOnUse" color-interpolation-filters="sRGB">
<feFlood flood-opacity="0" result="BackgroundImageFix"/>
<feColorMatrix in="SourceAlpha" type="matrix" values="0 0 0 0 0 0 0 0 0 0 0 0 0 0 0 0 0 0 127 0" result="hardAlpha"/>
<feOffset dx="10" dy="4"/>
<feGaussianBlur stdDeviation="10"/>
<feComposite in2="hardAlpha" operator="out"/>
<feColorMatrix type="matrix" values="0 0 0 0 0.603922 0 0 0 0 0.227451 0 0 0 0 0.980392 0 0 0 1 0"/>
<feBlend mode="normal" in2="BackgroundImageFix" result="effect1_dropShadow_1_85"/>
<feColorMatrix in="SourceAlpha" type="matrix" values="0 0 0 0 0 0 0 0 0 0 0 0 0 0 0 0 0 0 127 0" result="hardAlpha"/>
<feOffset dx="-10" dy="4"/>
<feGaussianBlur stdDeviation="10"/>
<feComposite in2="hardAlpha" operator="out"/>
<feColorMatrix type="matrix" values="0 0 0 0 0 0 0 0 0 0.66 0 0 0 0 0.66 0 0 0 1 0"/>
<feBlend mode="normal" in2="effect1_dropShadow_1_85" result="effect2_dropShadow_1_85"/>
<feBlend mode="normal" in="SourceGraphic" in2="effect2_dropShadow_1_85" result="shape"/>
</filter>
<linearGradient id="paint0_linear_1_85" x1="62.7671" y1="34.9743" x2="64.1841" y2="48.6427" gradientUnits="userSpaceOnUse">
<stop offset="0.106384" stop-color="#31FF9C" stop-opacity="0.7"/>
<stop offset="0.561982" stop-color="#9A3AFA"/>
<stop offset="1" stop-color="#FF72A1"/>
</linearGradient>
</defs>
</svg>
